# xmcd
#
# Track frame offsets:
# 150
# 15361
# 36309
# 64604
# 81378
# 106722
# 134199
# 149456
# 176590
# 192610
# 222659
#
# Disc length: 3395 seconds
#
#
# Revision: 2
# Processed by: cddbd v1.5.1PL0 Copyright (c) Steve Scherf et al.
# Submitted via: FreeRIP 2.90 
#
DISCID=a80d410b
DTITLE=Ahmet Kaya - Hosçakalin Gözüm
DYEAR=1900
DGENRE=
TTITLE0=Siz Yanmayin
TTITLE1=Memleket Hasreti
TTITLE2=Al Öfkemi
TTITLE3=Telgrafin Telleri
TTITLE4=Yakarim Geceleri
TTITLE5=Karwan
TTITLE6=Ada Sahilleri
TTITLE7=Diyarbakir Hasreti
TTITLE8=Hadi Bize Gidelim
TTITLE9=Hosçakalin Gözüm
TTITLE10=Gegevens Track
EXTD=
EXTT0=
EXTT1=
EXTT2=
EXTT3=
EXTT4=
EXTT5=
EXTT6=
EXTT7=
EXTT8=
EXTT9=
EXTT10=
PLAYORDER=
